<mxfile host="app.diagrams.net" modified="2022-09-20T20:25:46.686Z" agent="5.0 (Windows NT 10.0; Win64; x64) AppleWebKit/537.36 (KHTML, like Gecko) Chrome/105.0.0.0 Safari/537.36" etag="rtrfeFxLcwBxsZyyFAU_" version="20.3.3" type="github">
  <diagram id="C5RBs43oDa-KdzZeNtuy" name="Page-1">
    <mxGraphModel dx="1278" dy="579" grid="1" gridSize="10" guides="1" tooltips="1" connect="1" arrows="1" fold="1" page="1" pageScale="1" pageWidth="827" pageHeight="1169" math="0" shadow="0">
      <root>
        <mxCell id="WIyWlLk6GJQsqaUBKTNV-0" />
        <mxCell id="WIyWlLk6GJQsqaUBKTNV-1" parent="WIyWlLk6GJQsqaUBKTNV-0" />
        <mxCell id="WNN6O7Ay_yX6jdCM337C-0" value="&lt;font style=&quot;vertical-align: inherit;&quot;&gt;&lt;font style=&quot;vertical-align: inherit;&quot;&gt;Iniciar&lt;/font&gt;&lt;/font&gt;" style="rounded=1;whiteSpace=wrap;html=1;" vertex="1" parent="WIyWlLk6GJQsqaUBKTNV-1">
          <mxGeometry x="320" y="39.99999999999994" width="120" height="60" as="geometry" />
        </mxCell>
        <mxCell id="WNN6O7Ay_yX6jdCM337C-1" value="" style="endArrow=classic;html=1;rounded=0;" edge="1" parent="WIyWlLk6GJQsqaUBKTNV-1">
          <mxGeometry width="50" height="50" relative="1" as="geometry">
            <mxPoint x="379.5" y="99.99999999999994" as="sourcePoint" />
            <mxPoint x="379.5" y="169.99999999999994" as="targetPoint" />
          </mxGeometry>
        </mxCell>
        <mxCell id="WNN6O7Ay_yX6jdCM337C-2" value="&lt;font style=&quot;vertical-align: inherit;&quot;&gt;&lt;font style=&quot;vertical-align: inherit;&quot;&gt;&lt;font style=&quot;vertical-align: inherit;&quot;&gt;&lt;font style=&quot;vertical-align: inherit;&quot;&gt;&lt;font style=&quot;vertical-align: inherit;&quot;&gt;&lt;font style=&quot;vertical-align: inherit;&quot;&gt;Escribir&amp;nbsp; &lt;/font&gt;&lt;/font&gt;&lt;/font&gt;&lt;/font&gt;&lt;/font&gt;&lt;/font&gt;&lt;span id=&quot;docs-internal-guid-b2af90ea-7fff-9c41-b5fd-789b85aaa53d&quot;&gt;&lt;span style=&quot;font-family: Arial; background-color: transparent; font-variant-numeric: normal; font-variant-east-asian: normal; vertical-align: baseline;&quot;&gt;&lt;font style=&quot;vertical-align: inherit;&quot;&gt;&lt;font style=&quot;vertical-align: inherit; font-size: 12px;&quot;&gt;&lt;font style=&quot;vertical-align: inherit;&quot;&gt;&lt;font style=&quot;vertical-align: inherit;&quot;&gt;(â€œIntroduzca el caracter&quot;)&lt;/font&gt;&lt;/font&gt;&lt;/font&gt;&lt;/font&gt;&lt;/span&gt;&lt;/span&gt;" style="shape=parallelogram;perimeter=parallelogramPerimeter;whiteSpace=wrap;html=1;fixedSize=1;" vertex="1" parent="WIyWlLk6GJQsqaUBKTNV-1">
          <mxGeometry x="270" y="170" width="220" height="60" as="geometry" />
        </mxCell>
        <mxCell id="WNN6O7Ay_yX6jdCM337C-3" value="" style="endArrow=classic;html=1;rounded=0;fontSize=12;" edge="1" parent="WIyWlLk6GJQsqaUBKTNV-1">
          <mxGeometry width="50" height="50" relative="1" as="geometry">
            <mxPoint x="379.5" y="230" as="sourcePoint" />
            <mxPoint x="379.5" y="290" as="targetPoint" />
          </mxGeometry>
        </mxCell>
        <mxCell id="WNN6O7Ay_yX6jdCM337C-4" value="&lt;font style=&quot;vertical-align: inherit;&quot;&gt;&lt;font style=&quot;vertical-align: inherit;&quot;&gt;Leer (&quot;Variable introducida&quot;)&lt;/font&gt;&lt;/font&gt;" style="shape=parallelogram;perimeter=parallelogramPerimeter;whiteSpace=wrap;html=1;fixedSize=1;fontSize=12;" vertex="1" parent="WIyWlLk6GJQsqaUBKTNV-1">
          <mxGeometry x="270" y="290" width="220" height="60" as="geometry" />
        </mxCell>
        <mxCell id="WNN6O7Ay_yX6jdCM337C-5" value="" style="rounded=0;whiteSpace=wrap;html=1;fontSize=12;" vertex="1" parent="WIyWlLk6GJQsqaUBKTNV-1">
          <mxGeometry x="219.5" y="445" width="320" height="40" as="geometry" />
        </mxCell>
        <mxCell id="WNN6O7Ay_yX6jdCM337C-6" value="" style="endArrow=none;html=1;rounded=0;fontSize=12;" edge="1" parent="WIyWlLk6GJQsqaUBKTNV-1">
          <mxGeometry width="50" height="50" relative="1" as="geometry">
            <mxPoint x="299.5" y="485" as="sourcePoint" />
            <mxPoint x="299.5" y="445" as="targetPoint" />
            <Array as="points">
              <mxPoint x="299.5" y="465" />
            </Array>
          </mxGeometry>
        </mxCell>
        <mxCell id="WNN6O7Ay_yX6jdCM337C-7" value="" style="endArrow=none;html=1;rounded=0;fontSize=12;" edge="1" parent="WIyWlLk6GJQsqaUBKTNV-1">
          <mxGeometry width="50" height="50" relative="1" as="geometry">
            <mxPoint x="379.5" y="485" as="sourcePoint" />
            <mxPoint x="379.5" y="445" as="targetPoint" />
          </mxGeometry>
        </mxCell>
        <mxCell id="WNN6O7Ay_yX6jdCM337C-8" value="" style="endArrow=none;html=1;rounded=0;fontSize=12;" edge="1" parent="WIyWlLk6GJQsqaUBKTNV-1">
          <mxGeometry width="50" height="50" relative="1" as="geometry">
            <mxPoint x="459.5" y="485" as="sourcePoint" />
            <mxPoint x="459.5" y="445" as="targetPoint" />
          </mxGeometry>
        </mxCell>
        <mxCell id="WNN6O7Ay_yX6jdCM337C-9" value="&lt;font style=&quot;vertical-align: inherit;&quot;&gt;&lt;font style=&quot;vertical-align: inherit;&quot;&gt;&lt;font style=&quot;vertical-align: inherit;&quot;&gt;&lt;font style=&quot;vertical-align: inherit;&quot;&gt;&lt;font style=&quot;vertical-align: inherit;&quot;&gt;&lt;font style=&quot;vertical-align: inherit;&quot;&gt;Consonante&lt;/font&gt;&lt;/font&gt;&lt;br&gt;&lt;/font&gt;&lt;/font&gt;&lt;/font&gt;&lt;/font&gt;" style="text;html=1;align=center;verticalAlign=middle;resizable=0;points=[];autosize=1;strokeColor=none;fillColor=none;fontSize=12;" vertex="1" parent="WIyWlLk6GJQsqaUBKTNV-1">
          <mxGeometry x="213.5" y="450" width="90" height="30" as="geometry" />
        </mxCell>
        <mxCell id="WNN6O7Ay_yX6jdCM337C-10" value="&lt;font style=&quot;vertical-align: inherit;&quot;&gt;&lt;font style=&quot;vertical-align: inherit;&quot;&gt;&lt;font style=&quot;vertical-align: inherit;&quot;&gt;&lt;font style=&quot;vertical-align: inherit;&quot;&gt;&lt;font style=&quot;vertical-align: inherit;&quot;&gt;&lt;font style=&quot;vertical-align: inherit;&quot;&gt;Vocal&lt;/font&gt;&lt;/font&gt;&lt;/font&gt;&lt;/font&gt;&lt;/font&gt;&lt;/font&gt;" style="text;html=1;align=center;verticalAlign=middle;resizable=0;points=[];autosize=1;strokeColor=none;fillColor=none;fontSize=12;" vertex="1" parent="WIyWlLk6GJQsqaUBKTNV-1">
          <mxGeometry x="313.5" y="450" width="50" height="30" as="geometry" />
        </mxCell>
        <mxCell id="WNN6O7Ay_yX6jdCM337C-11" value="&lt;font style=&quot;vertical-align: inherit;&quot;&gt;&lt;font style=&quot;vertical-align: inherit;&quot;&gt;&lt;font style=&quot;vertical-align: inherit;&quot;&gt;&lt;font style=&quot;vertical-align: inherit;&quot;&gt;&lt;font style=&quot;vertical-align: inherit;&quot;&gt;&lt;font style=&quot;vertical-align: inherit;&quot;&gt;Numero&lt;/font&gt;&lt;/font&gt;&lt;/font&gt;&lt;/font&gt;&lt;/font&gt;&lt;/font&gt;" style="text;html=1;align=center;verticalAlign=middle;resizable=0;points=[];autosize=1;strokeColor=none;fillColor=none;fontSize=12;" vertex="1" parent="WIyWlLk6GJQsqaUBKTNV-1">
          <mxGeometry x="384.5" y="450" width="70" height="30" as="geometry" />
        </mxCell>
        <mxCell id="WNN6O7Ay_yX6jdCM337C-12" value="&lt;font style=&quot;vertical-align: inherit;&quot;&gt;&lt;font style=&quot;vertical-align: inherit;&quot;&gt;&lt;font style=&quot;vertical-align: inherit;&quot;&gt;&lt;font style=&quot;vertical-align: inherit;&quot;&gt;Otro&lt;/font&gt;&lt;/font&gt;&lt;br&gt;&lt;/font&gt;&lt;/font&gt;" style="text;html=1;align=center;verticalAlign=middle;resizable=0;points=[];autosize=1;strokeColor=none;fillColor=none;fontSize=12;" vertex="1" parent="WIyWlLk6GJQsqaUBKTNV-1">
          <mxGeometry x="474.5" y="450" width="50" height="30" as="geometry" />
        </mxCell>
        <mxCell id="WNN6O7Ay_yX6jdCM337C-13" value="" style="rounded=0;whiteSpace=wrap;html=1;fontSize=12;" vertex="1" parent="WIyWlLk6GJQsqaUBKTNV-1">
          <mxGeometry x="120" y="525" width="169.5" height="30" as="geometry" />
        </mxCell>
        <mxCell id="WNN6O7Ay_yX6jdCM337C-14" value="" style="rounded=0;whiteSpace=wrap;html=1;fontSize=12;" vertex="1" parent="WIyWlLk6GJQsqaUBKTNV-1">
          <mxGeometry x="303.5" y="525" width="146.5" height="30" as="geometry" />
        </mxCell>
        <mxCell id="WNN6O7Ay_yX6jdCM337C-15" value="" style="rounded=0;whiteSpace=wrap;html=1;fontSize=12;" vertex="1" parent="WIyWlLk6GJQsqaUBKTNV-1">
          <mxGeometry x="469.5" y="525" width="140.5" height="30" as="geometry" />
        </mxCell>
        <mxCell id="WNN6O7Ay_yX6jdCM337C-16" value="" style="rounded=0;whiteSpace=wrap;html=1;fontSize=12;" vertex="1" parent="WIyWlLk6GJQsqaUBKTNV-1">
          <mxGeometry x="630" y="525" width="150" height="30" as="geometry" />
        </mxCell>
        <mxCell id="WNN6O7Ay_yX6jdCM337C-17" value="" style="endArrow=classic;html=1;rounded=0;fontSize=12;" edge="1" parent="WIyWlLk6GJQsqaUBKTNV-1">
          <mxGeometry width="50" height="50" relative="1" as="geometry">
            <mxPoint x="258.0799999999999" y="485" as="sourcePoint" />
            <mxPoint x="258.0799999999999" y="525" as="targetPoint" />
          </mxGeometry>
        </mxCell>
        <mxCell id="WNN6O7Ay_yX6jdCM337C-18" value="" style="endArrow=classic;html=1;rounded=0;fontSize=12;" edge="1" parent="WIyWlLk6GJQsqaUBKTNV-1">
          <mxGeometry width="50" height="50" relative="1" as="geometry">
            <mxPoint x="338.66999999999985" y="485" as="sourcePoint" />
            <mxPoint x="338.66999999999985" y="525" as="targetPoint" />
          </mxGeometry>
        </mxCell>
        <mxCell id="WNN6O7Ay_yX6jdCM337C-22" value="" style="endArrow=none;html=1;rounded=0;fontSize=12;" edge="1" parent="WIyWlLk6GJQsqaUBKTNV-1">
          <mxGeometry width="50" height="50" relative="1" as="geometry">
            <mxPoint x="219.5" y="445" as="sourcePoint" />
            <mxPoint x="383.4999999999999" y="390" as="targetPoint" />
          </mxGeometry>
        </mxCell>
        <mxCell id="WNN6O7Ay_yX6jdCM337C-23" value="" style="endArrow=none;html=1;rounded=0;fontSize=12;" edge="1" parent="WIyWlLk6GJQsqaUBKTNV-1">
          <mxGeometry width="50" height="50" relative="1" as="geometry">
            <mxPoint x="540.5" y="445" as="sourcePoint" />
            <mxPoint x="384.4999999999999" y="390" as="targetPoint" />
          </mxGeometry>
        </mxCell>
        <mxCell id="WNN6O7Ay_yX6jdCM337C-24" value="" style="endArrow=classic;html=1;rounded=0;fontSize=12;" edge="1" parent="WIyWlLk6GJQsqaUBKTNV-1">
          <mxGeometry width="50" height="50" relative="1" as="geometry">
            <mxPoint x="382.49999999999994" y="350" as="sourcePoint" />
            <mxPoint x="382.49999999999994" y="390" as="targetPoint" />
            <Array as="points">
              <mxPoint x="382.5" y="370" />
            </Array>
          </mxGeometry>
        </mxCell>
        <mxCell id="WNN6O7Ay_yX6jdCM337C-25" value="" style="endArrow=none;html=1;rounded=0;fontSize=12;" edge="1" parent="WIyWlLk6GJQsqaUBKTNV-1">
          <mxGeometry width="50" height="50" relative="1" as="geometry">
            <mxPoint x="258.5" y="580" as="sourcePoint" />
            <mxPoint x="258.0799999999999" y="555" as="targetPoint" />
          </mxGeometry>
        </mxCell>
        <mxCell id="WNN6O7Ay_yX6jdCM337C-26" value="" style="endArrow=none;html=1;rounded=0;fontSize=12;" edge="1" parent="WIyWlLk6GJQsqaUBKTNV-1">
          <mxGeometry width="50" height="50" relative="1" as="geometry">
            <mxPoint x="338.4999999999999" y="580" as="sourcePoint" />
            <mxPoint x="338.08000000000004" y="555" as="targetPoint" />
          </mxGeometry>
        </mxCell>
        <mxCell id="WNN6O7Ay_yX6jdCM337C-29" value="" style="endArrow=none;html=1;rounded=0;fontSize=12;" edge="1" parent="WIyWlLk6GJQsqaUBKTNV-1">
          <mxGeometry width="50" height="50" relative="1" as="geometry">
            <mxPoint x="257.5" y="580" as="sourcePoint" />
            <mxPoint x="503.5" y="580" as="targetPoint" />
          </mxGeometry>
        </mxCell>
        <mxCell id="WNN6O7Ay_yX6jdCM337C-30" value="&lt;font style=&quot;vertical-align: inherit;&quot;&gt;&lt;font style=&quot;vertical-align: inherit;&quot;&gt;&lt;font style=&quot;vertical-align: inherit;&quot;&gt;&lt;font style=&quot;vertical-align: inherit;&quot;&gt;Escribir (&quot;Es una consonante&quot;)&lt;/font&gt;&lt;/font&gt;&lt;/font&gt;&lt;/font&gt;" style="text;html=1;align=center;verticalAlign=middle;resizable=0;points=[];autosize=1;strokeColor=none;fillColor=none;fontSize=12;" vertex="1" parent="WIyWlLk6GJQsqaUBKTNV-1">
          <mxGeometry x="109.75" y="525" width="190" height="30" as="geometry" />
        </mxCell>
        <mxCell id="WNN6O7Ay_yX6jdCM337C-31" value="&lt;font style=&quot;vertical-align: inherit;&quot;&gt;&lt;font style=&quot;vertical-align: inherit;&quot;&gt;&lt;font style=&quot;vertical-align: inherit;&quot;&gt;&lt;font style=&quot;vertical-align: inherit;&quot;&gt;Escribir (&quot;Es una vocal&quot;)&lt;/font&gt;&lt;/font&gt;&lt;/font&gt;&lt;/font&gt;" style="text;html=1;align=center;verticalAlign=middle;resizable=0;points=[];autosize=1;strokeColor=none;fillColor=none;fontSize=12;" vertex="1" parent="WIyWlLk6GJQsqaUBKTNV-1">
          <mxGeometry x="299.75" y="525" width="150" height="30" as="geometry" />
        </mxCell>
        <mxCell id="WNN6O7Ay_yX6jdCM337C-32" value="&lt;font style=&quot;vertical-align: inherit;&quot;&gt;&lt;font style=&quot;vertical-align: inherit;&quot;&gt;&lt;font style=&quot;vertical-align: inherit;&quot;&gt;&lt;font style=&quot;vertical-align: inherit;&quot;&gt;Escribir (&quot;Es un numero&quot;)&lt;/font&gt;&lt;/font&gt;&lt;/font&gt;&lt;/font&gt;" style="text;html=1;align=center;verticalAlign=middle;resizable=0;points=[];autosize=1;strokeColor=none;fillColor=none;fontSize=12;" vertex="1" parent="WIyWlLk6GJQsqaUBKTNV-1">
          <mxGeometry x="459.75" y="525" width="160" height="30" as="geometry" />
        </mxCell>
        <mxCell id="WNN6O7Ay_yX6jdCM337C-33" value="&lt;font style=&quot;vertical-align: inherit;&quot;&gt;&lt;font style=&quot;vertical-align: inherit;&quot;&gt;&lt;font style=&quot;vertical-align: inherit;&quot;&gt;&lt;font style=&quot;vertical-align: inherit;&quot;&gt;&lt;font style=&quot;vertical-align: inherit;&quot;&gt;&lt;font style=&quot;vertical-align: inherit;&quot;&gt;&lt;font style=&quot;vertical-align: inherit;&quot;&gt;&lt;font style=&quot;vertical-align: inherit;&quot;&gt;Escribir (&quot;Es otro tipo&quot;)&lt;/font&gt;&lt;/font&gt;&lt;/font&gt;&lt;/font&gt;&lt;/font&gt;&lt;/font&gt;&lt;/font&gt;&lt;/font&gt;" style="text;html=1;align=center;verticalAlign=middle;resizable=0;points=[];autosize=1;strokeColor=none;fillColor=none;fontSize=12;" vertex="1" parent="WIyWlLk6GJQsqaUBKTNV-1">
          <mxGeometry x="630" y="525" width="140" height="30" as="geometry" />
        </mxCell>
        <mxCell id="WNN6O7Ay_yX6jdCM337C-34" value="" style="endArrow=classic;html=1;rounded=0;fontSize=12;" edge="1" parent="WIyWlLk6GJQsqaUBKTNV-1">
          <mxGeometry width="50" height="50" relative="1" as="geometry">
            <mxPoint x="384.5" y="580" as="sourcePoint" />
            <mxPoint x="384.5" y="620" as="targetPoint" />
          </mxGeometry>
        </mxCell>
        <mxCell id="WNN6O7Ay_yX6jdCM337C-37" value="" style="endArrow=classic;html=1;rounded=0;fontSize=12;entryX=0.504;entryY=0.013;entryDx=0;entryDy=0;entryPerimeter=0;" edge="1" parent="WIyWlLk6GJQsqaUBKTNV-1" target="WNN6O7Ay_yX6jdCM337C-32">
          <mxGeometry width="50" height="50" relative="1" as="geometry">
            <mxPoint x="429.5" y="485" as="sourcePoint" />
            <mxPoint x="459.75" y="515" as="targetPoint" />
          </mxGeometry>
        </mxCell>
        <mxCell id="WNN6O7Ay_yX6jdCM337C-39" value="" style="endArrow=classic;html=1;rounded=0;fontSize=12;entryX=0.526;entryY=-0.067;entryDx=0;entryDy=0;entryPerimeter=0;" edge="1" parent="WIyWlLk6GJQsqaUBKTNV-1" target="WNN6O7Ay_yX6jdCM337C-33">
          <mxGeometry width="50" height="50" relative="1" as="geometry">
            <mxPoint x="514.75" y="485" as="sourcePoint" />
            <mxPoint x="564.75" y="515" as="targetPoint" />
          </mxGeometry>
        </mxCell>
        <mxCell id="WNN6O7Ay_yX6jdCM337C-40" value="" style="endArrow=none;html=1;rounded=0;fontSize=12;" edge="1" parent="WIyWlLk6GJQsqaUBKTNV-1">
          <mxGeometry width="50" height="50" relative="1" as="geometry">
            <mxPoint x="500" y="580" as="sourcePoint" />
            <mxPoint x="710" y="580" as="targetPoint" />
            <Array as="points">
              <mxPoint x="570" y="580" />
            </Array>
          </mxGeometry>
        </mxCell>
        <mxCell id="WNN6O7Ay_yX6jdCM337C-41" value="" style="endArrow=none;html=1;rounded=0;fontSize=12;" edge="1" parent="WIyWlLk6GJQsqaUBKTNV-1">
          <mxGeometry width="50" height="50" relative="1" as="geometry">
            <mxPoint x="539.75" y="585" as="sourcePoint" />
            <mxPoint x="539.25" y="555" as="targetPoint" />
          </mxGeometry>
        </mxCell>
        <mxCell id="WNN6O7Ay_yX6jdCM337C-42" value="" style="endArrow=none;html=1;rounded=0;fontSize=12;" edge="1" parent="WIyWlLk6GJQsqaUBKTNV-1">
          <mxGeometry width="50" height="50" relative="1" as="geometry">
            <mxPoint x="710.5" y="580" as="sourcePoint" />
            <mxPoint x="710" y="550" as="targetPoint" />
          </mxGeometry>
        </mxCell>
        <mxCell id="WNN6O7Ay_yX6jdCM337C-43" value="&lt;font style=&quot;vertical-align: inherit;&quot;&gt;&lt;font style=&quot;vertical-align: inherit;&quot;&gt;Fin&lt;/font&gt;&lt;/font&gt;" style="ellipse;whiteSpace=wrap;html=1;fontSize=12;" vertex="1" parent="WIyWlLk6GJQsqaUBKTNV-1">
          <mxGeometry x="320" y="620" width="120" height="80" as="geometry" />
        </mxCell>
      </root>
    </mxGraphModel>
  </diagram>
</mxfile>
